<mxfile host="app.diagrams.net" modified="2020-11-09T08:01:16.737Z" agent="5.0 (Macintosh; Intel Mac OS X 10_14_0) AppleWebKit/537.36 (KHTML, like Gecko) Chrome/86.0.4240.111 Safari/537.36" etag="-BAJUk9gh5UnsMN3RZpg" version="13.8.8" type="github">
  <diagram id="3sJmwWHuC3y5HuRblNoI" name="Page-1">
    <mxGraphModel dx="2893" dy="984" grid="1" gridSize="10" guides="1" tooltips="1" connect="1" arrows="1" fold="1" page="1" pageScale="1" pageWidth="827" pageHeight="1169" math="0" shadow="0">
      <root>
        <mxCell id="0" />
        <mxCell id="1" parent="0" />
        <mxCell id="ATobDdn7_iabuAxhh3ML-18" style="edgeStyle=orthogonalEdgeStyle;rounded=0;orthogonalLoop=1;jettySize=auto;html=1;exitX=1;exitY=0.5;exitDx=0;exitDy=0;entryX=0;entryY=0.5;entryDx=0;entryDy=0;" parent="1" source="ATobDdn7_iabuAxhh3ML-1" edge="1">
          <mxGeometry relative="1" as="geometry">
            <mxPoint x="-240" y="320" as="targetPoint" />
          </mxGeometry>
        </mxCell>
        <mxCell id="ATobDdn7_iabuAxhh3ML-1" value="SDK合入系统&lt;br&gt;（国内）" style="rounded=0;whiteSpace=wrap;html=1;" parent="1" vertex="1">
          <mxGeometry x="-470" y="290" width="120" height="60" as="geometry" />
        </mxCell>
        <mxCell id="ATobDdn7_iabuAxhh3ML-2" value="组件负责人" style="shape=umlActor;verticalLabelPosition=bottom;verticalAlign=top;html=1;outlineConnect=0;" parent="1" vertex="1">
          <mxGeometry x="-640" y="300" width="30" height="60" as="geometry" />
        </mxCell>
        <mxCell id="ATobDdn7_iabuAxhh3ML-3" value="" style="endArrow=classic;html=1;exitX=1;exitY=0.3333333333333333;exitDx=0;exitDy=0;exitPerimeter=0;entryX=0;entryY=0.5;entryDx=0;entryDy=0;" parent="1" source="ATobDdn7_iabuAxhh3ML-2" target="ATobDdn7_iabuAxhh3ML-1" edge="1">
          <mxGeometry width="50" height="50" relative="1" as="geometry">
            <mxPoint x="-250" y="490" as="sourcePoint" />
            <mxPoint x="-200" y="440" as="targetPoint" />
          </mxGeometry>
        </mxCell>
        <mxCell id="ATobDdn7_iabuAxhh3ML-5" value="发布新组件" style="text;html=1;strokeColor=none;fillColor=none;align=center;verticalAlign=middle;whiteSpace=wrap;rounded=0;" parent="1" vertex="1">
          <mxGeometry x="-580" y="300" width="68" height="20" as="geometry" />
        </mxCell>
        <mxCell id="uo3p1n60BAuQ-Tskl4PL-17" style="edgeStyle=orthogonalEdgeStyle;rounded=0;orthogonalLoop=1;jettySize=auto;html=1;exitX=0;exitY=0.5;exitDx=0;exitDy=0;" parent="1" source="ATobDdn7_iabuAxhh3ML-12" target="uo3p1n60BAuQ-Tskl4PL-4" edge="1">
          <mxGeometry relative="1" as="geometry" />
        </mxCell>
        <mxCell id="uo3p1n60BAuQ-Tskl4PL-19" value="获取最新版本并打包" style="edgeLabel;html=1;align=center;verticalAlign=middle;resizable=0;points=[];" parent="uo3p1n60BAuQ-Tskl4PL-17" vertex="1" connectable="0">
          <mxGeometry x="-0.0667" y="-2" relative="1" as="geometry">
            <mxPoint as="offset" />
          </mxGeometry>
        </mxCell>
        <mxCell id="ATobDdn7_iabuAxhh3ML-12" value="下载页国际站&lt;br&gt;（新加坡）" style="rounded=0;whiteSpace=wrap;html=1;" parent="1" vertex="1">
          <mxGeometry x="350" y="290" width="120" height="60" as="geometry" />
        </mxCell>
        <mxCell id="ATobDdn7_iabuAxhh3ML-21" style="edgeStyle=orthogonalEdgeStyle;rounded=0;orthogonalLoop=1;jettySize=auto;html=1;exitX=0.5;exitY=1;exitDx=0;exitDy=0;" parent="1" source="ATobDdn7_iabuAxhh3ML-1" target="ATobDdn7_iabuAxhh3ML-12" edge="1">
          <mxGeometry relative="1" as="geometry">
            <Array as="points">
              <mxPoint x="-410" y="470" />
              <mxPoint x="410" y="470" />
            </Array>
          </mxGeometry>
        </mxCell>
        <mxCell id="ATobDdn7_iabuAxhh3ML-22" value="同步版本信息到国际站" style="edgeLabel;html=1;align=center;verticalAlign=middle;resizable=0;points=[];" parent="ATobDdn7_iabuAxhh3ML-21" vertex="1" connectable="0">
          <mxGeometry x="-0.1818" relative="1" as="geometry">
            <mxPoint as="offset" />
          </mxGeometry>
        </mxCell>
        <mxCell id="ATobDdn7_iabuAxhh3ML-31" value="2" style="ellipse;whiteSpace=wrap;html=1;aspect=fixed;rounded=0;labelBackgroundColor=none;sketch=0;fontSize=14;fillColor=#FFA866;strokeColor=#4D4D4D;" parent="1" vertex="1">
          <mxGeometry x="-306" y="278" width="20" height="20" as="geometry" />
        </mxCell>
        <mxCell id="ATobDdn7_iabuAxhh3ML-34" value="3" style="ellipse;whiteSpace=wrap;html=1;aspect=fixed;rounded=0;labelBackgroundColor=none;sketch=0;fontSize=14;fillColor=#FFA866;strokeColor=#4D4D4D;" parent="1" vertex="1">
          <mxGeometry x="-32" y="280" width="20" height="20" as="geometry" />
        </mxCell>
        <mxCell id="ATobDdn7_iabuAxhh3ML-37" value="4" style="ellipse;whiteSpace=wrap;html=1;aspect=fixed;rounded=0;labelBackgroundColor=none;sketch=0;fontSize=14;fillColor=#FFA866;strokeColor=#4D4D4D;" parent="1" vertex="1">
          <mxGeometry x="-103" y="440" width="20" height="20" as="geometry" />
        </mxCell>
        <mxCell id="ATobDdn7_iabuAxhh3ML-38" value="1" style="ellipse;whiteSpace=wrap;html=1;aspect=fixed;rounded=0;labelBackgroundColor=none;sketch=0;fontSize=14;fillColor=#FFA866;strokeColor=#4D4D4D;" parent="1" vertex="1">
          <mxGeometry x="-556" y="280" width="20" height="20" as="geometry" />
        </mxCell>
        <mxCell id="uo3p1n60BAuQ-Tskl4PL-2" value="AWS S3&lt;br&gt;（对象存储）" style="rounded=0;whiteSpace=wrap;html=1;" parent="1" vertex="1">
          <mxGeometry x="-240" y="290" width="120" height="60" as="geometry" />
        </mxCell>
        <mxCell id="uo3p1n60BAuQ-Tskl4PL-3" value="" style="endArrow=classic;startArrow=classic;html=1;exitX=1;exitY=0.5;exitDx=0;exitDy=0;entryX=0;entryY=0.5;entryDx=0;entryDy=0;" parent="1" source="uo3p1n60BAuQ-Tskl4PL-2" target="uo3p1n60BAuQ-Tskl4PL-4" edge="1">
          <mxGeometry width="50" height="50" relative="1" as="geometry">
            <mxPoint x="-110" y="350" as="sourcePoint" />
            <mxPoint x="10" y="320" as="targetPoint" />
          </mxGeometry>
        </mxCell>
        <mxCell id="uo3p1n60BAuQ-Tskl4PL-4" value="国际站AWS服务器" style="rounded=0;whiteSpace=wrap;html=1;" parent="1" vertex="1">
          <mxGeometry x="80" y="290" width="120" height="60" as="geometry" />
        </mxCell>
        <mxCell id="uo3p1n60BAuQ-Tskl4PL-5" value="通过硬盘挂载方式自动同步" style="text;html=1;strokeColor=none;fillColor=none;align=center;verticalAlign=middle;whiteSpace=wrap;rounded=0;" parent="1" vertex="1">
          <mxGeometry x="-96" y="300" width="156" height="20" as="geometry" />
        </mxCell>
        <mxCell id="uo3p1n60BAuQ-Tskl4PL-16" style="edgeStyle=orthogonalEdgeStyle;rounded=0;orthogonalLoop=1;jettySize=auto;html=1;exitX=1;exitY=0.5;exitDx=0;exitDy=0;entryX=0.5;entryY=0;entryDx=0;entryDy=0;" parent="1" source="uo3p1n60BAuQ-Tskl4PL-8" target="ATobDdn7_iabuAxhh3ML-12" edge="1">
          <mxGeometry relative="1" as="geometry" />
        </mxCell>
        <mxCell id="uo3p1n60BAuQ-Tskl4PL-18" value="控制当前下载版本" style="edgeLabel;html=1;align=center;verticalAlign=middle;resizable=0;points=[];" parent="uo3p1n60BAuQ-Tskl4PL-16" vertex="1" connectable="0">
          <mxGeometry x="-0.2896" y="-4" relative="1" as="geometry">
            <mxPoint y="-5" as="offset" />
          </mxGeometry>
        </mxCell>
        <mxCell id="uo3p1n60BAuQ-Tskl4PL-8" value="国际站下载页管理后台" style="rounded=0;whiteSpace=wrap;html=1;" parent="1" vertex="1">
          <mxGeometry x="-240" y="120" width="120" height="60" as="geometry" />
        </mxCell>
        <mxCell id="uo3p1n60BAuQ-Tskl4PL-9" style="edgeStyle=orthogonalEdgeStyle;rounded=0;orthogonalLoop=1;jettySize=auto;html=1;entryX=0;entryY=0.5;entryDx=0;entryDy=0;" parent="1" target="uo3p1n60BAuQ-Tskl4PL-8" edge="1">
          <mxGeometry relative="1" as="geometry">
            <Array as="points">
              <mxPoint x="-625" y="150" />
            </Array>
            <mxPoint x="-625" y="290" as="sourcePoint" />
            <mxPoint x="-625" y="590" as="targetPoint" />
          </mxGeometry>
        </mxCell>
        <mxCell id="uo3p1n60BAuQ-Tskl4PL-10" value="变更版本信息" style="edgeLabel;html=1;align=center;verticalAlign=middle;resizable=0;points=[];" parent="uo3p1n60BAuQ-Tskl4PL-9" vertex="1" connectable="0">
          <mxGeometry x="-0.1818" relative="1" as="geometry">
            <mxPoint as="offset" />
          </mxGeometry>
        </mxCell>
        <mxCell id="uo3p1n60BAuQ-Tskl4PL-11" value="5" style="ellipse;whiteSpace=wrap;html=1;aspect=fixed;rounded=0;labelBackgroundColor=none;sketch=0;fontSize=14;fillColor=#FFA866;strokeColor=#4D4D4D;" parent="1" vertex="1">
          <mxGeometry x="-560" y="120" width="20" height="20" as="geometry" />
        </mxCell>
        <mxCell id="48NXh24DLfGN-_I6xpfl-1" value="上传" style="text;html=1;strokeColor=none;fillColor=none;align=center;verticalAlign=middle;whiteSpace=wrap;rounded=0;" vertex="1" parent="1">
          <mxGeometry x="-374" y="300" width="156" height="20" as="geometry" />
        </mxCell>
        <mxCell id="48NXh24DLfGN-_I6xpfl-2" value="7" style="ellipse;whiteSpace=wrap;html=1;aspect=fixed;rounded=0;labelBackgroundColor=none;sketch=0;fontSize=14;fillColor=#FFA866;strokeColor=#4D4D4D;" vertex="1" parent="1">
          <mxGeometry x="270" y="290" width="20" height="20" as="geometry" />
        </mxCell>
        <mxCell id="48NXh24DLfGN-_I6xpfl-3" value="6" style="ellipse;whiteSpace=wrap;html=1;aspect=fixed;rounded=0;labelBackgroundColor=none;sketch=0;fontSize=14;fillColor=#FFA866;strokeColor=#4D4D4D;" vertex="1" parent="1">
          <mxGeometry x="110" y="120" width="20" height="20" as="geometry" />
        </mxCell>
      </root>
    </mxGraphModel>
  </diagram>
</mxfile>
